<?xml version="1.0" standalone="no"?>
<!DOCTYPE svg PUBLIC "-//W3C//DTD SVG 20010904//EN"
 "http://www.w3.org/TR/2001/REC-SVG-20010904/DTD/svg10.dtd">
<svg version="1.0" xmlns="http://www.w3.org/2000/svg"
 width="200.000000pt" height="200.000000pt" viewBox="0 0 200.000000 200.000000"
 preserveAspectRatio="xMidYMid meet">
<metadata>
Created by potrace 1.11, written by Peter Selinger 2001-2013
</metadata>
<g transform="translate(0.000000,200.000000) scale(0.100000,-0.100000)"
fill="#000000" stroke="none">
<path d="M125 1641 c-47 -20 -59 -47 -63 -150 l-3 -98 923 1 922 1 2 88 c1 98
-16 140 -62 157 -31 12 -1690 13 -1719 1z"/>
<path d="M78 1132 c-15 -3 -16 -39 -15 -352 l2 -350 28 -27 27 -28 850 -3
c922 -3 891 -4 922 51 9 16 13 109 13 365 l1 342 -61 0 c-519 3 -1755 4 -1767
2z m1632 -403 l0 -158 -102 -3 c-57 -2 -128 -2 -159 0 l-57 3 1 152 c0 84 4
154 9 157 4 3 75 6 158 6 l150 0 0 -157z"/>
</g>
</svg>
